<svg id="showetikonif_Image" data-name="showetikonif Image" xmlns="http://www.w3.org/2000/svg" viewBox="0 0 61.44 61.44"><defs><style>.cls-1{fill:#fdfdfe;}.cls-2,.cls-3{fill:#013390;}.cls-2{stroke:#fff;stroke-miterlimit:10;stroke-width:2px;}.cls-4{fill:#f4f5f7;}.cls-5{fill:#030303;}.cls-6{fill:#fafafa;}.cls-7{fill:#fff;}</style></defs><title>Artboard 1</title><path class="cls-1" d="M18.44,5.25C8.06,9.58-.48,22.18,2.39,36.89,5,50.41,17.73,61.88,35,59.7a28.36,28.36,0,0,0,25-26.09c1.23-15-8.73-25.44-16.51-28.28,0,1.37,0,2.73,0,4.08,0,.78-.24.92-.94.91-3.16,0-6.32-.05-9.48,0-.79,0-.91-.27-.89-1,0-1.8-.06-3.6,0-5.4.06-1.11-.62-.87-1.22-.86S29.64,2.82,29.7,4c.09,1.84,0,3.68,0,5.52,0,.69-.21.86-.88.85-3.19,0-6.39,0-9.59,0-.71,0-.86-.23-.84-.88C18.47,8.08,18.44,6.72,18.44,5.25Z"/><path class="cls-2" d="M18.44,5.25c0,1.47,0,2.83,0,4.19,0,.65.13.89.84.88,3.2,0,6.4,0,9.59,0,.67,0-3-5.71-3-6.41,0-1.83.09,1.84,0,0-.05-1.12,4.48-1,5.05-1s3.93.23,3.87,1.34c-.09,1.79-.5,3.12-.54,4.91,0,.69-2,1.18-1.25,1.17,3.16-.06,6.32-.05,9.48,0,.7,0,.1-.42.06-1.2-.07-1.35.86-2.42.86-3.79,7.78,2.84,17.74,13.26,16.51,28.28A28.36,28.36,0,0,1,35,59.7C17.73,61.88,5,50.41,2.39,36.89-.48,22.18,8.06,9.58,18.44,5.25Z"/><path class="cls-3" d="M31.22,48.81c10.46-.49,17.6-8.62,17.41-17.86a17.48,17.48,0,0,0-18-17.33,17.45,17.45,0,0,0-17.4,17.8C13.44,41.81,21.82,48.78,31.22,48.81Z"/><path class="cls-4" d="M31.22,48.81c-9.4,0-17.78-7-18-17.39a17.45,17.45,0,0,1,17.4-17.8A17.48,17.48,0,0,1,48.63,31C48.82,40.19,41.68,48.32,31.22,48.81Z"/><path class="cls-4" d="M30.89,15.08c-9.15.37-16.25,6.92-16.21,16.18a15.91,15.91,0,0,0,16.21,16A15.92,15.92,0,0,0,47.16,31.19C47.15,21.8,39.9,15.4,30.89,15.08Z"/><path class="cls-5" d="M30.89,15.08c9,.32,16.26,6.72,16.27,16.11A15.92,15.92,0,0,1,30.89,47.3a15.91,15.91,0,0,1-16.21-16C14.64,22,21.74,15.45,30.89,15.08Z"/><path class="cls-5" d="M32.51,20.31a11.24,11.24,0,1,0,9.23,9.09A11.25,11.25,0,0,0,32.51,20.31Z"/><path class="cls-6" d="M28.84,20.32a11.24,11.24,0,1,1-9.21,9.07A11.25,11.25,0,0,1,28.84,20.32ZM23.61,30c-.73,4.69,2.47,8.66,7.05,8.69a7.3,7.3,0,0,0,7.19-6.23,7.15,7.15,0,0,0-7.67-8.17c.95,3,.7,4.52-.95,5.84S25.88,31.3,23.61,30Z"/><path class="cls-5" d="M23.61,30c2.27,1.35,4.07,1.38,5.62.13s1.9-2.87.95-5.84a7.15,7.15,0,0,1,7.67,8.17,7.3,7.3,0,0,1-7.19,6.23C26.08,38.61,22.88,34.64,23.61,30Z"/><rect x="32.3" y="1.41" width="10.91" height="9.71"/><path class="cls-7" d="M42.2,2.41v7.71H33.3V2.41h8.9m2-2H31.3V12.12H44.2V.41Z"/><rect x="18.3" y="1.41" width="10.91" height="9.71"/><path class="cls-7" d="M28.2,2.41v7.71H19.3V2.41h8.9m2-2H17.3V12.12H30.2V.41Z"/></svg>